<svg xmlns="http://www.w3.org/2000/svg" version="1.1" xmlns:xlink="http://www.w3.org/1999/xlink" xmlns:svgjs="http://svgjs.dev/svgjs" width="2000" height="469" viewBox="0 0 2000 469"><g transform="matrix(1,0,0,1,0.213333333333253,0.8241822936318215)"><svg viewBox="0 0 375 88" data-background-color="#ffffff" preserveAspectRatio="xMidYMid meet" height="469" width="2000" xmlns="http://www.w3.org/2000/svg" xmlns:xlink="http://www.w3.org/1999/xlink"><g id="tight-bounds" transform="matrix(1,0,0,1,-0.03976036071776434,-0.15464401245117188)"><svg viewBox="0 0 375.07952880859375 88.30928802490234" height="88.30928802490234" width="375.07952880859375"><g><svg></svg></g><g><svg viewBox="0 0 375.07952880859375 88.30928802490234" height="88.30928802490234" width="375.07952880859375"><g transform="matrix(1,0,0,1,-10.220239639282227,-81.86971282958984)"><path xmlns="http://www.w3.org/2000/svg" d="M10.22 165.33v-83.46h375.08v83.46h-24.192l0-2.8h21.391v-77.86h-369.478v77.86h285.338v2.8z" fill="#8abe53" fill-rule="nonzero" stroke="none" stroke-width="1" stroke-linecap="butt" stroke-linejoin="miter" stroke-miterlimit="10" stroke-dasharray="" stroke-dashoffset="0" font-family="none" font-weight="none" font-size="none" text-anchor="none" style="mix-blend-mode: normal" data-fill-palette-color="tertiary"></path><g><path xmlns="http://www.w3.org/2000/svg" d="M314.016 159.034c0 0.479-0.127 0.88-0.381 1.203-0.254 0.325-0.606 0.534-1.056 0.629v0l-0.028 0.042c0.47 0.413 0.705 0.93 0.704 1.55v0c0 0.676-0.254 1.221-0.761 1.634-0.507 0.413-1.198 0.62-2.071 0.62v0h-0.958c-0.282 0-0.517 0.073-0.705 0.22-0.188 0.145-0.282 0.33-0.281 0.555v0c0 0.225 0.089 0.404 0.267 0.535 0.178 0.132 0.418 0.197 0.719 0.198v0h2.719c0.554 0 0.999 0.174 1.333 0.521 0.333 0.348 0.499 0.789 0.499 1.325v0c0 0.639-0.241 1.151-0.724 1.535-0.485 0.385-1.136 0.578-1.953 0.578v0h-2.832c-0.319 0-0.612-0.085-0.879-0.254-0.269-0.169-0.48-0.382-0.635-0.639-0.156-0.259-0.234-0.525-0.233-0.798v0c0-0.395 0.097-0.737 0.29-1.028 0.192-0.291 0.447-0.507 0.766-0.648v0c-0.432-0.263-0.648-0.653-0.648-1.17v0c0-0.338 0.099-0.629 0.296-0.874 0.197-0.244 0.474-0.427 0.831-0.549v0c-0.629-0.348-0.944-0.935-0.944-1.761v0c0-0.695 0.256-1.247 0.77-1.657 0.511-0.408 1.222-0.612 2.133-0.612v0h0.056c0.526 0 1.005 0.08 1.437 0.24v0c0.667-0.329 1.047-0.794 1.142-1.395v0zM310.296 161.246c-0.498 0-0.894 0.096-1.189 0.287-0.297 0.194-0.445 0.502-0.445 0.925v0c0 0.423 0.148 0.728 0.445 0.916 0.295 0.188 0.691 0.282 1.189 0.281v0c0.498 0 0.897-0.094 1.198-0.281 0.301-0.188 0.451-0.493 0.451-0.916v0c0-0.423-0.15-0.731-0.451-0.925-0.301-0.192-0.7-0.287-1.198-0.287zM311.79 167.488h-2.903c-0.225 0-0.418 0.08-0.578 0.239-0.16 0.16-0.24 0.352-0.239 0.578v0c0 0.225 0.08 0.418 0.239 0.578 0.16 0.16 0.352 0.24 0.578 0.239v0h2.72c0.301 0 0.559-0.086 0.774-0.259 0.216-0.175 0.324-0.375 0.325-0.6v0c0-0.235-0.08-0.423-0.24-0.564-0.16-0.141-0.385-0.211-0.676-0.211zM318.257 160.189c0.949 0 1.656 0.188 2.122 0.564 0.464 0.376 0.696 0.921 0.696 1.634v0 3.734c0 0.169 0.038 0.293 0.113 0.372 0.075 0.081 0.169 0.121 0.282 0.121v0c0.216 0 0.432-0.066 0.648-0.197v0 0.972c-0.319 0.188-0.681 0.282-1.085 0.282v0c-0.404 0-0.705-0.116-0.902-0.347-0.197-0.229-0.305-0.546-0.324-0.949v0c-0.582 0.864-1.423 1.296-2.522 1.296v0c-0.789 0-1.378-0.172-1.767-0.516-0.391-0.342-0.586-0.884-0.586-1.626v0c0-0.582 0.15-1.041 0.451-1.375 0.301-0.333 0.798-0.574 1.493-0.724 0.695-0.15 1.653-0.225 2.875-0.226v0-0.662c0-0.479-0.141-0.815-0.423-1.009-0.282-0.192-0.69-0.287-1.226-0.287v0c-0.507 0-0.902 0.099-1.184 0.296-0.282 0.197-0.423 0.474-0.422 0.831v0 0.169h-1.297c-0.019-0.132-0.028-0.286-0.028-0.465v0c0-0.329 0.132-0.639 0.395-0.93 0.263-0.291 0.62-0.524 1.071-0.699 0.451-0.173 0.949-0.259 1.493-0.259v0zM319.751 164.233c-0.986 0-1.73 0.049-2.232 0.147-0.503 0.1-0.84 0.248-1.009 0.445-0.169 0.197-0.254 0.47-0.254 0.817v0c0 0.648 0.493 0.972 1.48 0.972v0c0.348 0 0.676-0.086 0.986-0.259 0.31-0.175 0.559-0.422 0.747-0.741 0.188-0.319 0.282-0.686 0.282-1.099v0zM326.908 160.189c0.667 0 1.188 0.213 1.564 0.64 0.376 0.428 0.564 0.967 0.564 1.615v0l-0.042 0.535h-1.17v-0.31c0-0.282-0.07-0.531-0.211-0.747-0.141-0.216-0.319-0.383-0.536-0.501-0.216-0.116-0.432-0.175-0.648-0.175v0c-0.451 0-0.803 0.178-1.057 0.535-0.254 0.357-0.38 0.841-0.38 1.452v0 4.297h-1.324v-7.2h0.944l0.197 1.071c0.056-0.188 0.183-0.376 0.38-0.564 0.197-0.188 0.444-0.343 0.741-0.465 0.295-0.122 0.621-0.183 0.978-0.183zM336.447 157.385v10.145h-0.986c-0.066-0.301-0.127-0.629-0.183-0.986v0c-0.535 0.751-1.277 1.127-2.227 1.127v0c-0.902 0-1.613-0.333-2.133-1-0.522-0.667-0.783-1.583-0.783-2.748v0-0.155c0-1.099 0.256-1.971 0.769-2.615 0.511-0.642 1.227-0.964 2.147-0.964v0c0.892 0 1.583 0.352 2.072 1.057v0-3.861zM333.291 161.246c-0.629 0-1.091 0.218-1.386 0.654-0.297 0.438-0.445 1.117-0.446 2.037v0c0 0.921 0.15 1.597 0.451 2.029 0.301 0.432 0.761 0.648 1.381 0.648v0c1.231 0 1.846-0.892 1.846-2.677v0c0-0.921-0.155-1.6-0.465-2.037-0.31-0.436-0.77-0.654-1.381-0.654zM341.675 160.189c0.592 0 1.116 0.124 1.572 0.372 0.455 0.25 0.809 0.605 1.062 1.065 0.254 0.46 0.38 0.996 0.381 1.607v0 1h-5.03c0.019 0.761 0.197 1.348 0.535 1.761 0.338 0.413 0.841 0.62 1.508 0.62v0c0.592 0 1.029-0.174 1.31-0.521 0.282-0.348 0.423-0.761 0.423-1.24v0h1.254c0 0.564-0.129 1.057-0.386 1.479-0.259 0.423-0.616 0.751-1.071 0.987-0.457 0.235-0.976 0.352-1.558 0.352v0h-0.057c-1.014 0-1.815-0.327-2.401-0.981-0.588-0.652-0.882-1.523-0.882-2.612v0-0.282c0-0.714 0.132-1.343 0.395-1.888 0.263-0.545 0.639-0.968 1.127-1.268 0.488-0.301 1.061-0.451 1.719-0.451v0zM341.604 161.246c-0.535 0-0.969 0.164-1.302 0.493-0.334 0.329-0.539 0.817-0.614 1.465v0h3.691v-0.169c0-0.535-0.162-0.968-0.484-1.296-0.325-0.329-0.755-0.493-1.291-0.493zM350.171 160.189c0.789 0 1.409 0.211 1.86 0.634 0.451 0.423 0.676 1.043 0.676 1.86v0 4.847h-1.324v-4.607c0-1.118-0.507-1.677-1.522-1.677v0c-0.338 0-0.653 0.089-0.944 0.268-0.291 0.178-0.526 0.42-0.705 0.724-0.178 0.306-0.268 0.642-0.267 1.009v0 4.283h-1.325v-7.2h0.958l0.183 1.057c0.601-0.798 1.404-1.198 2.41-1.198z" fill="#096a2e" fill-rule="nonzero" stroke="none" stroke-width="1" stroke-linecap="butt" stroke-linejoin="miter" stroke-miterlimit="10" stroke-dasharray="" stroke-dashoffset="0" font-family="none" font-weight="none" font-size="none" text-anchor="none" style="mix-blend-mode: normal" data-fill-palette-color="secondary"></path></g></g><g transform="matrix(1,0,0,1,29.331764404296905,28.62830898707046)"><svg viewBox="0 0 316.41599999999994 31.052670050761417" height="31.052670050761417" width="316.41599999999994"><g><svg viewBox="0 0 316.41599999999994 31.052670050761417" height="31.052670050761417" width="316.41599999999994"><g><svg viewBox="0 0 316.41599999999994 31.052670050761417" height="31.052670050761417" width="316.41599999999994"><g><svg viewBox="0 0 316.41599999999994 31.052670050761417" height="31.052670050761417" width="316.41599999999994"><g><svg viewBox="0 0 316.41599999999994 31.052670050761417" height="31.052670050761417" width="316.41599999999994"><g><svg viewBox="0 0 316.41599999999994 31.052670050761417" height="31.052670050761417" width="316.41599999999994"><g transform="matrix(1,0,0,1,0,0)"><svg width="316.41599999999994" viewBox="2.450000047683716 -28.5 295.47998046875 29" height="31.052670050761417" data-palette-color="#8abe53"><path d="M13.65 0L2.45 0 2.45-0.8 6.1-2.45 6.1-25.6 2.45-27.2 2.45-28 10.7-28 27.45-8.7 27.45-25.6 22.85-27.2 22.85-28 33.95-28 33.95-27.2 30.4-25.6 30.4 0.2 27.5 0.2 9.05-20.9 9.05-2.55 13.65-0.8 13.65 0ZM52.25 0L39 0 39-0.8 42.65-2.45 42.65-25.55 39-27.2 39-28 52.25-28 52.25-27.2 48.7-25.55 48.7-15.75 61.45-15.75 61.45-25.55 57.9-27.2 57.9-28 71.1-28 71.1-27.2 67.5-25.55 67.5-2.45 71.1-0.8 71.1 0 57.9 0 57.9-0.8 61.45-2.45 61.45-13.2 48.7-13.2 48.7-2.45 52.25-0.8 52.25 0ZM84.25 0L74.95 0 74.95-0.8 77.45-2.15 88.6-28.25 92-28.25 102.95-2.35 106-0.8 106 0 93.25 0 93.25-0.8 96.75-2.3 93.8-9.4 83.6-9.4 80.65-2.25 84.25-0.8 84.25 0ZM88.7-21.7L84.65-11.95 92.75-11.95 88.7-21.7ZM120.84 0L109.64 0 109.64-0.8 113.29-2.45 113.29-25.6 109.64-27.2 109.64-28 117.89-28 134.64-8.7 134.64-25.6 130.04-27.2 130.04-28 141.14-28 141.14-27.2 137.59-25.6 137.59 0.2 134.69 0.2 116.24-20.9 116.24-2.55 120.84-0.8 120.84 0ZM161.39 0.5L161.39 0.5Q157.19 0.5 153.81-1.28 150.44-3.05 148.47-6.18 146.49-9.3 146.49-13.35L146.49-13.35Q146.49-16.7 147.77-19.48 149.04-22.25 151.24-24.28 153.44-26.3 156.37-27.4 159.29-28.5 162.59-28.5L162.59-28.5Q165.94-28.5 167.99-27.93 170.04-27.35 171.89-26.45L171.89-26.45 172.24-19.15 171.49-19.15 168.19-24.4Q166.64-25.4 165.47-25.8 164.29-26.2 162.79-26.2L162.79-26.2Q159.64-26.2 157.31-24.73 154.99-23.25 153.69-20.63 152.39-18 152.39-14.65L152.39-14.65Q152.39-10.8 153.69-7.95 154.99-5.1 157.31-3.58 159.64-2.05 162.74-2.05L162.74-2.05Q163.74-2.05 164.74-2.18 165.74-2.3 166.74-2.6L166.74-2.6 166.74-10.05 162.94-11.9 162.94-12.6 175.64-12.6 175.64-11.9 172.54-9.95 172.54-3.1Q171.29-2 169.44-1.2 167.59-0.4 165.49 0.05 163.39 0.5 161.39 0.5ZM193.19 0L180.34 0 180.34-0.8 183.64-2.45 183.64-25.55 180.34-27.2 180.34-28 193.19-28 193.19-27.2 189.69-25.55 189.69-2.45 193.19-0.8 193.19 0ZM206.54 0L197.24 0 197.24-0.8 199.74-2.15 210.89-28.25 214.29-28.25 225.24-2.35 228.29-0.8 228.29 0 215.54 0 215.54-0.8 219.04-2.3 216.09-9.4 205.89-9.4 202.94-2.25 206.54-0.8 206.54 0ZM210.99-21.7L206.94-11.95 215.04-11.95 210.99-21.7ZM243.13 0L231.93 0 231.93-0.8 235.58-2.45 235.58-25.6 231.93-27.2 231.93-28 240.18-28 256.93-8.7 256.93-25.6 252.33-27.2 252.33-28 263.43-28 263.43-27.2 259.88-25.6 259.88 0.2 256.98 0.2 238.53-20.9 238.53-2.55 243.13-0.8 243.13 0ZM283.68 0.5L283.68 0.5Q279.48 0.5 276.11-1.28 272.73-3.05 270.75-6.18 268.78-9.3 268.78-13.35L268.78-13.35Q268.78-16.7 270.06-19.48 271.33-22.25 273.53-24.28 275.73-26.3 278.65-27.4 281.58-28.5 284.88-28.5L284.88-28.5Q288.23-28.5 290.28-27.93 292.33-27.35 294.18-26.45L294.18-26.45 294.53-19.15 293.78-19.15 290.48-24.4Q288.93-25.4 287.75-25.8 286.58-26.2 285.08-26.2L285.08-26.2Q281.93-26.2 279.61-24.73 277.28-23.25 275.98-20.63 274.68-18 274.68-14.65L274.68-14.65Q274.68-10.8 275.98-7.95 277.28-5.1 279.61-3.58 281.93-2.05 285.03-2.05L285.03-2.05Q286.03-2.05 287.03-2.18 288.03-2.3 289.03-2.6L289.03-2.6 289.03-10.05 285.23-11.9 285.23-12.6 297.93-12.6 297.93-11.9 294.83-9.95 294.83-3.1Q293.58-2 291.73-1.2 289.88-0.4 287.78 0.05 285.68 0.5 283.68 0.5Z" opacity="1" transform="matrix(1,0,0,1,0,0)" fill="#8abe53" class="undefined-text-0" data-fill-palette-color="primary" id="text-0"></path></svg></g></svg></g></svg></g></svg></g></svg></g></svg></g></svg></g></svg></g><defs></defs></svg><rect width="375.07952880859375" height="88.30928802490234" fill="none" stroke="none" visibility="hidden"></rect></g></svg></g></svg>