<svg xmlns="http://www.w3.org/2000/svg" version="1.1" xmlns:xlink="http://www.w3.org/1999/xlink" xmlns:svgjs="http://svgjs.dev/svgjs" width="2000" height="1770" viewBox="0 0 2000 1770"><g transform="matrix(1,0,0,1,-1.1645147964654825,0.7165991902833184)"><svg viewBox="0 0 279 247" data-background-color="#ffffff" preserveAspectRatio="xMidYMid meet" height="1770" width="2000" xmlns="http://www.w3.org/2000/svg" xmlns:xlink="http://www.w3.org/1999/xlink"><g id="tight-bounds" transform="matrix(1,0,0,1,0.16244984049697564,-0.09999999999999432)"><svg viewBox="0 0 278.6750958678862 247.2" height="247.2" width="278.6750958678862"><g><svg viewBox="0 0 395.52 350.84779892334484" height="247.2" width="278.6750958678862"><g transform="matrix(1,0,0,1,0,254.62352800659016)"><svg viewBox="0 0 395.52 96.22427091675466" height="96.22427091675466" width="395.52"><g><svg viewBox="0 0 395.52 96.22427091675466" height="96.22427091675466" width="395.52"><g><svg viewBox="0 0 395.52 51.89877379177265" height="51.89877379177265" width="395.52"><g transform="matrix(1,0,0,1,0,0)"><svg width="395.52" viewBox="4.489999771118164 -36.040000915527344 278.33001708984375 36.53000259399414" height="51.89877379177265" data-palette-color="#8bc53f"><path d="M30.96-35.55L30.96 0 27.95 0 7.52-30.42 7.52 0 4.49 0 4.49-35.55 7.52-35.55 27.98-5.1 27.98-35.55 30.96-35.55ZM66.33-35.55L66.33 0 63.3 0 63.3-17.04 42.99-17.04 42.99 0 39.99 0 39.99-35.55 42.99-35.55 42.99-19.58 63.3-19.58 63.3-35.55 66.33-35.55ZM98.68 0L94.99-9.96 78.85-9.96 75.19 0 72.04 0 85.49-35.55 88.35-35.55 101.8 0 98.68 0ZM86.91-31.88L79.78-12.52 94.04-12.52 86.91-31.88ZM133.49-35.55L133.49 0 130.49 0 110.05-30.42 110.05 0 107.02 0 107.02-35.55 110.05-35.55 130.51-5.1 130.51-35.55 133.49-35.55ZM168.18-16.87L168.18-4.22Q166.62-2 163.28-0.76 159.95 0.49 155.82 0.49L155.82 0.49Q151.65 0.49 148.4-1.51 145.16-3.52 143.37-7.18 141.59-10.84 141.57-15.58L141.57-15.58 141.57-20.07Q141.57-27.47 145.3-31.75 149.04-36.04 155.34-36.04L155.34-36.04Q160.83-36.04 164.17-33.24 167.52-30.44 168.15-25.54L168.15-25.54 165.15-25.54Q164.49-29.44 161.97-31.46 159.44-33.47 155.36-33.47L155.36-33.47Q150.38-33.47 147.48-29.93 144.57-26.39 144.57-19.95L144.57-19.95 144.57-15.75Q144.57-11.69 145.95-8.58 147.33-5.47 149.9-3.76 152.48-2.05 155.82-2.05L155.82-2.05Q159.71-2.05 162.49-3.27L162.49-3.27Q164.3-4.08 165.18-5.15L165.18-5.15 165.18-14.33 155.63-14.33 155.63-16.87 168.18-16.87ZM180.36-35.55L180.36 0 177.36 0 177.36-35.55 180.36-35.55ZM213.32 0L209.63-9.96 193.49-9.96 189.83 0 186.68 0 200.13-35.55 202.99-35.55 216.44 0 213.32 0ZM201.55-31.88L194.42-12.52 208.68-12.52 201.55-31.88ZM248.13-35.55L248.13 0 245.12 0 224.69-30.42 224.69 0 221.66 0 221.66-35.55 224.69-35.55 245.15-5.1 245.15-35.55 248.13-35.55ZM282.82-16.87L282.82-4.22Q281.25-2 277.92-0.76 274.59 0.49 270.46 0.49L270.46 0.49Q266.29 0.49 263.04-1.51 259.79-3.52 258.01-7.18 256.23-10.84 256.21-15.58L256.21-15.58 256.21-20.07Q256.21-27.47 259.94-31.75 263.68-36.04 269.98-36.04L269.98-36.04Q275.47-36.04 278.81-33.24 282.16-30.44 282.79-25.54L282.79-25.54 279.79-25.54Q279.13-29.44 276.6-31.46 274.08-33.47 270-33.47L270-33.47Q265.02-33.47 262.11-29.93 259.21-26.39 259.21-19.95L259.21-19.95 259.21-15.75Q259.21-11.69 260.59-8.58 261.97-5.47 264.54-3.76 267.12-2.05 270.46-2.05L270.46-2.05Q274.35-2.05 277.13-3.27L277.13-3.27Q278.94-4.08 279.81-5.15L279.81-5.15 279.81-14.33 270.27-14.33 270.27-16.87 282.82-16.87Z" opacity="1" transform="matrix(1,0,0,1,0,0)" fill="#8bc53f" class="undefined-text-0" data-fill-palette-color="primary" id="text-0"></path></svg></g></svg></g><g transform="matrix(1,0,0,1,0,64.15082871343917)"><svg viewBox="0 0 395.52 32.073442203315494" height="32.073442203315494" width="395.52"><g transform="matrix(1,0,0,1,0,0)"><svg width="395.52" viewBox="2.440000057220459 -37.54999923706055 604.239990234375 49" height="32.073442203315494" data-palette-color="#8bc53f"><path d="M31.69-17.5L31.69 2.54Q31.69 4.17 31.27 5.48 30.86 6.79 30.18 7.78 29.49 8.76 28.59 9.46 27.69 10.16 26.7 10.6 25.71 11.04 24.69 11.24 23.68 11.45 22.78 11.45L22.78 11.45 11.33 11.45 11.33 5.1 22.78 5.1Q24.07 5.1 24.71 4.44 25.34 3.78 25.34 2.54L25.34 2.54 25.34-17.5Q25.34-18.75 24.71-19.4 24.07-20.04 22.78-20.04L22.78-20.04 11.33-20.04Q10.16-20.04 9.47-19.32 8.79-18.6 8.79-17.5L8.79-17.5 8.79-8.91Q8.79-7.67 9.45-7.01 10.11-6.35 11.38-6.35L11.38-6.35 22.78-6.35 22.78 0 11.33 0Q10.42 0 9.42-0.21 8.42-0.42 7.43-0.85 6.45-1.29 5.54-1.99 4.64-2.69 3.96-3.67 3.27-4.66 2.86-5.97 2.44-7.28 2.44-8.91L2.44-8.91 2.44-17.5Q2.44-18.41 2.65-19.41 2.86-20.41 3.3-21.4 3.74-22.39 4.43-23.29 5.13-24.19 6.12-24.88 7.1-25.56 8.4-25.98 9.69-26.39 11.33-26.39L11.33-26.39 22.78-26.39Q23.68-26.39 24.69-26.18 25.71-25.98 26.7-25.54 27.69-25.1 28.59-24.4 29.49-23.71 30.18-22.72 30.86-21.73 31.27-20.43 31.69-19.14 31.69-17.5L31.69-17.5ZM147.23-17.65L147.23-8.74Q147.23-7.42 146.77-5.9 146.3-4.37 145.26-3.06 144.23-1.76 142.55-0.88 140.88 0 138.49 0L138.49 0 127.04 0Q125.72 0 124.2-0.46 122.67-0.93 121.36-1.97 120.06-3 119.18-4.68 118.3-6.35 118.3-8.74L118.3-8.74Q118.3-10.06 118.76-11.6 119.23-13.13 120.26-14.44 121.3-15.75 122.97-16.63 124.65-17.5 127.04-17.5L127.04-17.5 138.49-17.5 138.49-11.45 127.04-11.45Q125.75-11.45 125.04-10.66 124.33-9.86 124.33-8.69L124.33-8.69Q124.33-7.45 125.15-6.75 125.97-6.05 127.09-6.05L127.09-6.05 138.49-6.05Q139.78-6.05 140.49-6.84 141.2-7.62 141.2-8.79L141.2-8.79 141.2-17.65Q141.2-18.9 140.43-19.63 139.66-20.36 138.49-20.36L138.49-20.36 124.55-20.36 124.55-26.39 138.49-26.39Q139.81-26.39 141.33-25.93 142.86-25.46 144.17-24.43 145.47-23.39 146.35-21.72 147.23-20.04 147.23-17.65L147.23-17.65ZM258.23-26.39L258.23-20.04 243.95-20.04Q242.65-20.04 241.99-19.4 241.34-18.75 241.34-17.5L241.34-17.5 241.34 0 234.99 0 234.99-17.5Q234.99-19.14 235.4-20.43 235.82-21.73 236.51-22.72 237.21-23.71 238.11-24.4 239.02-25.1 240-25.54 240.99-25.98 242.01-26.18 243.02-26.39 243.9-26.39L243.9-26.39 258.23-26.39ZM373.75-37.55L373.75-8.91Q373.75-7.28 373.33-5.97 372.92-4.66 372.23-3.67 371.55-2.69 370.65-1.99 369.74-1.29 368.75-0.85 367.76-0.42 366.75-0.21 365.74 0 364.83 0L364.83 0 353.38 0Q351.75 0 350.45-0.42 349.16-0.83 348.17-1.53 347.18-2.22 346.49-3.13 345.79-4.03 345.35-5.02 344.91-6.01 344.71-7.02 344.5-8.03 344.5-8.91L344.5-8.91 344.5-17.5Q344.5-19.95 345.39-21.64 346.28-23.34 347.61-24.4 348.94-25.46 350.5-25.93 352.07-26.39 353.38-26.39L353.38-26.39 364.83-26.39 364.83-20.04 353.43-20.04Q352.16-20.04 351.5-19.4 350.85-18.75 350.85-17.5L350.85-17.5 350.85-8.96Q350.85-7.67 351.49-7.01 352.14-6.35 353.38-6.35L353.38-6.35 364.83-6.35Q366.13-6.35 366.76-7.01 367.4-7.67 367.4-8.91L367.4-8.91 367.4-37.55 373.75-37.55ZM490.68-17.65L490.68-17.65Q490.68-16.33 490.21-14.81 489.75-13.28 488.71-11.98 487.68-10.67 486-9.79 484.33-8.91 481.94-8.91L481.94-8.91 470.49-8.91 470.49-14.94 481.94-14.94Q483.23-14.94 483.94-15.73 484.65-16.53 484.65-17.7L484.65-17.7Q484.65-18.95 483.85-19.65 483.06-20.36 481.94-20.36L481.94-20.36 470.49-20.36Q469.19-20.36 468.49-19.57 467.78-18.77 467.78-17.6L467.78-17.6 467.78-8.74Q467.78-7.47 468.57-6.76 469.36-6.05 470.54-6.05L470.54-6.05 481.94-6.05 481.94 0 470.49 0Q469.17 0 467.64-0.46 466.12-0.93 464.81-1.97 463.51-3 462.63-4.68 461.75-6.35 461.75-8.74L461.75-8.74 461.75-17.65Q461.75-18.97 462.21-20.5 462.68-22.02 463.71-23.33 464.75-24.63 466.42-25.51 468.1-26.39 470.49-26.39L470.49-26.39 481.94-26.39Q483.26-26.39 484.78-25.93 486.31-25.46 487.61-24.43 488.92-23.39 489.8-21.72 490.68-20.04 490.68-17.65ZM606.68-14.65L606.68 0 600.33 0 600.33-14.65Q600.33-15.89 599.91-16.88 599.48-17.87 598.75-18.58 598.02-19.29 597.03-19.67 596.04-20.04 594.89-20.04L594.89-20.04 583.78-20.04 583.78 0 577.43 0 577.43-23.24Q577.43-23.9 577.68-24.48 577.92-25.05 578.36-25.48 578.8-25.9 579.39-26.15 579.97-26.39 580.63-26.39L580.63-26.39 594.94-26.39Q596.14-26.39 597.47-26.12 598.8-25.85 600.1-25.26 601.41-24.66 602.59-23.74 603.78-22.83 604.69-21.52 605.61-20.21 606.15-18.51 606.68-16.8 606.68-14.65L606.68-14.65Z" opacity="1" transform="matrix(1,0,0,1,0,0)" fill="#8bc53f" class="undefined-text-1" data-fill-palette-color="secondary" id="text-1"></path></svg></g></svg></g></svg></g></svg></g><g transform="matrix(1,0,0,1,82.70029091837142,0)"><svg viewBox="0 0 230.11941816325714 230.11941816325714" height="230.11941816325714" width="230.11941816325714"><g><svg></svg></g><g id="icon-0"><svg viewBox="0 0 230.11941816325714 230.11941816325714" height="230.11941816325714" width="230.11941816325714"><g><path d="M0 115.06c0-63.546 51.514-115.06 115.06-115.06 63.546 0 115.06 51.514 115.059 115.06 0 63.546-51.514 115.06-115.059 115.059-63.546 0-115.06-51.514-115.06-115.059zM115.06 225.439c60.961 0 110.379-49.419 110.379-110.379 0-60.961-49.419-110.379-110.379-110.38-60.961 0-110.379 49.419-110.38 110.38 0 60.961 49.419 110.379 110.38 110.379z" data-fill-palette-color="accent" fill="#5d9943" stroke="transparent"></path><ellipse rx="113.90911199081228" ry="113.90911199081228" cx="115.05970908162857" cy="115.05970908162857" fill="#5d9943" stroke="transparent" stroke-width="0" fill-opacity="1" data-fill-palette-color="accent"></ellipse></g><g transform="matrix(1,0,0,1,45.91621502938325,59.70292130211955)"><svg viewBox="0 0 138.28698810449063 110.71357555901804" height="110.71357555901804" width="138.28698810449063"><g><svg xmlns="http://www.w3.org/2000/svg" xmlns:xlink="http://www.w3.org/1999/xlink" version="1.1" x="0" y="0" viewBox="1.2000000476837158 20.89999771118164 197.60000610351562 158.20001220703125" style="enable-background:new 0 0 200 200;" xml:space="preserve" height="110.71357555901804" width="138.28698810449063" class="icon-s-0" data-fill-palette-color="quaternary" id="s-0"><g fill="#ffffff" data-fill-palette-color="quaternary"><path d="M102.2 179.1H2.2c-0.6 0-1-0.4-1-1v-118c0-0.6 0.4-1 1-1h100c0.6 0 1 0.4 1 1v118C103.2 178.6 102.8 179.1 102.2 179.1zM3.2 177.1h98v-116h-98V177.1z" fill="#ffffff" data-fill-palette-color="quaternary"></path><path d="M90.2 61.1c-0.6 0-1-0.4-1-1 0-17.9-11.9-37.2-38-37.2-26.1 0-38 19.3-38 37.2 0 0.6-0.4 1-1 1s-1-0.4-1-1c0-12.1 4.3-22.3 12.5-29.4 7.3-6.3 17-9.8 27.5-9.8 10.5 0 20.2 3.5 27.5 9.8 8.2 7.1 12.5 17.3 12.5 29.4C91.2 60.6 90.8 61.1 90.2 61.1z" fill="#ffffff" data-fill-palette-color="quaternary"></path><path d="M102.2 171.1H2.2c-0.6 0-1-0.4-1-1s0.4-1 1-1h100c0.6 0 1 0.4 1 1S102.8 171.1 102.2 171.1z" fill="#ffffff" data-fill-palette-color="quaternary"></path><path d="M102.2 171.1c-0.3 0-0.5-0.1-0.7-0.3-0.4-0.4-0.4-1 0-1.4l54.7-54.7c0.4-0.4 1-0.4 1.4 0s0.4 1 0 1.4l-54.7 54.7C102.8 171 102.5 171.1 102.2 171.1z" fill="#ffffff" data-fill-palette-color="quaternary"></path><path d="M166.4 118.2c-5.4 0-10.8-2-14.8-6.1-4-4-6.2-9.2-6.2-14.8 0-5.6 2.2-10.9 6.2-14.8 0.4-0.4 1-0.4 1.4 0l28.3 28.3c0.4 0.4 0.4 1 0 1.4C177.1 116.2 171.8 118.2 166.4 118.2zM152.3 84.5c-3.2 3.5-4.9 8-4.9 12.7 0 5.1 2 9.8 5.6 13.4 7.2 7.2 18.7 7.4 26.1 0.7L152.3 84.5z" fill="#ffffff" data-fill-palette-color="quaternary"></path><path d="M102.2 153.1c-0.3 0-0.5-0.1-0.7-0.3-0.4-0.4-0.4-1 0-1.4l45.6-45.6c0.4-0.4 1-0.4 1.4 0s0.4 1 0 1.4l-45.6 45.6C102.8 153 102.5 153.1 102.2 153.1z" fill="#ffffff" data-fill-palette-color="quaternary"></path><g fill="#ffffff" data-fill-palette-color="quaternary"><path d="M173.3 90.4c-0.3 0-0.5-0.1-0.7-0.3-0.4-0.4-0.4-1 0-1.4l14.1-14.1c0.4-0.4 1-0.4 1.4 0s0.4 1 0 1.4L174 90.1C173.8 90.3 173.5 90.4 173.3 90.4z" fill="#ffffff" data-fill-palette-color="quaternary"></path><path d="M163.3 86.3c-0.6 0-1-0.4-1-1v-20c0-0.6 0.4-1 1-1s1 0.4 1 1v20C164.3 85.8 163.8 86.3 163.3 86.3z" fill="#ffffff" data-fill-palette-color="quaternary"></path><path d="M197.8 100.1h-20c-0.6 0-1-0.4-1-1s0.4-1 1-1h20c0.6 0 1 0.4 1 1S198.3 100.1 197.8 100.1z" fill="#ffffff" data-fill-palette-color="quaternary"></path></g></g></svg></g></svg></g></svg></g></svg></g><g></g></svg></g><defs></defs></svg><rect width="278.6750958678862" height="247.2" fill="none" stroke="none" visibility="hidden"></rect></g></svg></g></svg>